<svg xmlns="http://www.w3.org/2000/svg" width="256" height="256" viewBox="0 0 256 256">
  <circle cx="128" cy="128" r="120" fill="#ffffff"/>
  <path d="M28 128a100 100 0 0 0 200 0" fill="#ffffff"/>
  <circle cx="180" cy="56" r="22" fill="#b87333"/>
  <path d="M32 162c30-22 66-34 96-34s66 12 96 34v18c-30-20-66-30-96-30s-66 10-96 30v-18z" fill="#2d6a4f"/>
  <path d="M32 182c30-18 66-26 96-26s66 8 96 26v16c-30-16-66-22-96-22s-66 6-96 22v-16z" fill="#52b788"/>
  <path d="M124 106c-8 12-10 26-10 26s16-4 24-16 10-26 10-26-16 4-24 16z" fill="#2d6a4f"/>
  <path d="M156 106c-8-12-24-16-24-16s2 14 10 26 24 16 24 16-2-14-10-26z" fill="#2d6a4f"/>
  <path d="M28 208c0-4 60-40 100-40s100 36 100 40-60 20-100 20-100-16-100-20z" fill="#6f4e37"/>
</svg>
